<?xml version="1.0" encoding="utf-8"?>
<!-- Generator: Adobe Illustrator 16.0.4, SVG Export Plug-In . SVG Version: 6.00 Build 0)  -->
<!DOCTYPE svg PUBLIC "-//W3C//DTD SVG 1.1//EN" "http://www.w3.org/Graphics/SVG/1.1/DTD/svg11.dtd">
<svg version="1.1" id="Ebene_1" xmlns="http://www.w3.org/2000/svg" xmlns:xlink="http://www.w3.org/1999/xlink" x="0px" y="0px"
	 width="192px" height="100px" viewBox="0 0 192 100" enable-background="new 0 0 192 100" xml:space="preserve">
<g id="BMW_M">
	<g>
		<rect x="32" y="20" fill="none" width="147.688" height="40.5"/>
		<path fill="#A8A8A8" d="M54.744,44.882V20.003H66.7c2.396,0,4.292,0.446,5.688,1.337c1.751,1.106,2.626,2.766,2.626,4.979
			c0,2.524-1.069,4.302-3.207,5.333c2.664,1.063,3.996,2.981,3.996,5.752c0,4.984-3.421,7.477-10.264,7.477L54.744,44.882
			L54.744,44.882z M60.029,29.8h5.672c1.418,0,2.428-0.226,3.029-0.677c0.623-0.451,0.935-1.16,0.935-2.127
			c0-1.171-0.478-1.966-1.434-2.385c-0.58-0.258-1.423-0.387-2.53-0.387h-5.672V29.8L60.029,29.8z M60.029,40.66h5.607
			c1.837,0,3.121-0.306,3.851-0.918c0.602-0.505,0.902-1.316,0.902-2.433c0-1.343-0.478-2.261-1.434-2.755
			c-0.73-0.376-1.837-0.564-3.319-0.564h-5.607V40.66L60.029,40.66z"/>
		<path fill="#A8A8A8" d="M79.591,44.882V20.003h7.203l6.075,18.482l5.994-18.482h7.041v24.879h-5.092V27.157l-5.864,17.725h-4.399
			L84.65,27.157v17.725H79.591z"/>
		<path fill="#A8A8A8" d="M113.977,44.882l-5.703-24.879h5.606l3.658,17.95l4.399-17.95h5.314l4.254,17.95l3.756-17.95h5.479
			l-6.042,24.879h-5.833l-4.385-17.563l-4.625,17.563H113.977L113.977,44.882z"/>
		<path fill="#A8A8A8" d="M151.005,44.882V20.003h7.202l6.075,18.482l5.993-18.482h7.043v24.879h-5.092V27.157l-5.865,17.725h-4.399
			l-5.897-17.725v17.725H151.005z"/>
	</g>
</g>
</svg>
